<?xml version="1.0" encoding="UTF-8" standalone="no"?>
<!-- Generator: Adobe Illustrator 19.0.0, SVG Export Plug-In . SVG Version: 6.00 Build 0)  -->

<svg
   xmlns:dc="http://purl.org/dc/elements/1.1/"
   xmlns:cc="http://creativecommons.org/ns#"
   xmlns:rdf="http://www.w3.org/1999/02/22-rdf-syntax-ns#"
   xmlns:svg="http://www.w3.org/2000/svg"
   xmlns="http://www.w3.org/2000/svg"
   xmlns:sodipodi="http://sodipodi.sourceforge.net/DTD/sodipodi-0.dtd"
   xmlns:inkscape="http://www.inkscape.org/namespaces/inkscape"
   version="1.1"
   id="Layer_1"
   x="0px"
   y="0px"
   viewBox="0 0 24 24"
   xml:space="preserve"
   sodipodi:docname="add-image.svg"
   inkscape:version="0.92.5 (2060ec1f9f, 2020-04-08)"
   width="24"
   height="24"><metadata
   id="metadata38"><rdf:RDF><cc:Work
       rdf:about=""><dc:format>image/svg+xml</dc:format><dc:type
         rdf:resource="http://purl.org/dc/dcmitype/StillImage" /><dc:title></dc:title></cc:Work></rdf:RDF></metadata><defs
   id="defs36" /><sodipodi:namedview
   pagecolor="#ffffff"
   bordercolor="#666666"
   borderopacity="1"
   objecttolerance="10"
   gridtolerance="10"
   guidetolerance="10"
   inkscape:pageopacity="0"
   inkscape:pageshadow="2"
   inkscape:window-width="1920"
   inkscape:window-height="1016"
   id="namedview34"
   showgrid="false"
   inkscape:zoom="22.627417"
   inkscape:cx="15.922437"
   inkscape:cy="12.499776"
   inkscape:window-x="0"
   inkscape:window-y="27"
   inkscape:window-maximized="1"
   inkscape:current-layer="g4" />

<g
   id="g3"
   transform="translate(0,-306)">
</g>
<g
   id="g5"
   transform="translate(0,-306)">
</g>
<g
   id="g7"
   transform="translate(0,-306)">
</g>
<g
   id="g9"
   transform="translate(0,-306)">
</g>
<g
   id="g11"
   transform="translate(0,-306)">
</g>
<g
   id="g13"
   transform="translate(0,-306)">
</g>
<g
   id="g15"
   transform="translate(0,-306)">
</g>
<g
   id="g17"
   transform="translate(0,-306)">
</g>
<g
   id="g19"
   transform="translate(0,-306)">
</g>
<g
   id="g21"
   transform="translate(0,-306)">
</g>
<g
   id="g23"
   transform="translate(0,-306)">
</g>
<g
   id="g25"
   transform="translate(0,-306)">
</g>
<g
   id="g27"
   transform="translate(0,-306)">
</g>
<g
   id="g29"
   transform="translate(0,-306)">
</g>
<g
   id="g31"
   transform="translate(0,-306)">
</g>
<g
   id="g1035"
   transform="translate(0,-0.43697034)" /><g
   transform="matrix(0.31356117,0,0,0.31356117,4.7676113,-2.6624566)"
   id="g4"
   style="fill:#3f494d;fill-opacity:1;stroke-width:3.18917036"><path
     inkscape:connector-curvature="0"
     style="fill:#3f494d;fill-opacity:1;stroke-width:10.17080784"
     d="M 46.433569,13.050403 H 0.20662216 A 9.9057745,9.9057745 0 0 0 -9.699151,22.956178 v 46.226945 a 9.9057745,9.9057745 0 0 0 9.90577316,9.905775 H 46.433569 a 9.2784082,9.2784082 0 0 0 1.617943,-0.165097 l 0.990577,-0.231135 h 0.231135 v 0 h 0.165097 l 1.221713,-0.462269 0.429249,-0.231135 c 0.330192,-0.198116 0.693405,-0.363211 1.023597,-0.594347 a 12.514295,12.514295 0 0 0 1.254731,-1.056616 l 0.231135,-0.297173 a 8.8821774,8.8821774 0 0 0 0.89152,-1.056616 l 0.297173,-0.429251 a 7.627446,7.627446 0 0 0 0.594347,-1.155672 3.3019247,3.3019247 0 0 0 0.231135,-0.495288 c 0.165097,-0.396232 0.264149,-0.825483 0.39623,-1.254733 v -0.495288 a 8.5850041,8.5850041 0 0 0 0.330195,-1.981155 V 22.956178 A 9.9057745,9.9057745 0 0 0 46.433569,13.050403 Z M 0.20662216,72.485048 A 3.3019247,3.3019247 0 0 1 -3.0953021,69.183123 V 54.951827 L 7.76803,44.055476 v 0 a 3.3019247,3.3019247 0 0 1 4.688734,0 L 40.853318,72.485048 Z M 49.735494,69.183123 a 3.3019247,3.3019247 0 0 1 -0.231135,1.188693 3.3019247,3.3019247 0 0 1 -0.264153,0.46227 3.1038092,3.1038092 0 0 1 -0.297174,0.39623 L 31.277735,53.565019 34.183429,50.659325 a 3.3019247,3.3019247 0 0 1 4.688734,0 v 0 l 10.863331,10.896352 z m 0,-16.971892 -6.207618,-6.14158 a 10.169928,10.169928 0 0 0 -14.000162,0 l -2.905692,2.905694 -9.509544,-9.509544 a 10.169928,10.169928 0 0 0 -14.000162,0 l -6.2076181,6.14158 V 22.956178 A 3.3019247,3.3019247 0 0 1 0.20662216,19.654253 H 46.433569 a 3.3019247,3.3019247 0 0 1 3.301925,3.301925 z M 28.272984,26.258102 a 4.9528869,4.9528869 0 1 0 4.952886,4.952887 4.9528869,4.9528869 0 0 0 -4.952886,-4.952887 z"
     id="path2-7" /></g></svg>