<?xml version="1.0" encoding="UTF-8" standalone="no"?>
<!-- Generator: Adobe Illustrator 19.0.0, SVG Export Plug-In . SVG Version: 6.00 Build 0)  -->

<svg
   xmlns:dc="http://purl.org/dc/elements/1.1/"
   xmlns:cc="http://creativecommons.org/ns#"
   xmlns:rdf="http://www.w3.org/1999/02/22-rdf-syntax-ns#"
   xmlns:svg="http://www.w3.org/2000/svg"
   xmlns="http://www.w3.org/2000/svg"
   xmlns:sodipodi="http://sodipodi.sourceforge.net/DTD/sodipodi-0.dtd"
   xmlns:inkscape="http://www.inkscape.org/namespaces/inkscape"
   version="1.1"
   id="Layer_1"
   x="0px"
   y="0px"
   viewBox="0 0 30 24"
   xml:space="preserve"
   sodipodi:docname="add-audio.svg"
   inkscape:version="0.92.5 (2060ec1f9f, 2020-04-08)"
   width="30"
   height="24"><metadata
   id="metadata38"><rdf:RDF><cc:Work
       rdf:about=""><dc:format>image/svg+xml</dc:format><dc:type
         rdf:resource="http://purl.org/dc/dcmitype/StillImage" /><dc:title /></cc:Work></rdf:RDF></metadata><defs
   id="defs36" /><sodipodi:namedview
   pagecolor="#ffffff"
   bordercolor="#666666"
   borderopacity="1"
   objecttolerance="10"
   gridtolerance="10"
   guidetolerance="10"
   inkscape:pageopacity="0"
   inkscape:pageshadow="2"
   inkscape:window-width="1920"
   inkscape:window-height="1016"
   id="namedview34"
   showgrid="false"
   inkscape:zoom="22.627417"
   inkscape:cx="15.922437"
   inkscape:cy="12.499776"
   inkscape:window-x="0"
   inkscape:window-y="27"
   inkscape:window-maximized="1"
   inkscape:current-layer="g4" />

<g
   id="g3"
   transform="translate(0,-306)">
</g>
<g
   id="g5"
   transform="translate(0,-306)">
</g>
<g
   id="g7"
   transform="translate(0,-306)">
</g>
<g
   id="g9"
   transform="translate(0,-306)">
</g>
<g
   id="g11"
   transform="translate(0,-306)">
</g>
<g
   id="g13"
   transform="translate(0,-306)">
</g>
<g
   id="g15"
   transform="translate(0,-306)">
</g>
<g
   id="g17"
   transform="translate(0,-306)">
</g>
<g
   id="g19"
   transform="translate(0,-306)">
</g>
<g
   id="g21"
   transform="translate(0,-306)">
</g>
<g
   id="g23"
   transform="translate(0,-306)">
</g>
<g
   id="g25"
   transform="translate(0,-306)">
</g>
<g
   id="g27"
   transform="translate(0,-306)">
</g>
<g
   id="g29"
   transform="translate(0,-306)">
</g>
<g
   id="g31"
   transform="translate(0,-306)">
</g>
<g
   id="g1035"
   transform="translate(0,-0.43697034)" /><g
   transform="matrix(0.31356117,0,0,0.31356117,4.7676113,-2.6624566)"
   id="g4"
   style="fill:#3f494d;fill-opacity:1;stroke-width:3.18917036"><path
     inkscape:connector-curvature="0"
     style="fill:#3f494d;fill-opacity:1;stroke-width:10.17080879"
     d="m 33.893919,18.321345 a 3.7240998,3.7240998 0 0 0 -3.724098,0.446892 l -17.8012,14.077096 H -1.2243422 a 3.7240998,3.7240998 0 0 0 -3.7241003,3.7241 v 22.344601 a 3.7240998,3.7240998 0 0 0 3.7241003,3.7241 H 12.368621 l 17.614993,14.077097 a 3.7240998,3.7240998 0 0 0 2.308943,0.819303 3.3889309,3.3889309 0 0 0 1.601362,-0.37241 3.7240998,3.7240998 0 0 0 2.122738,-3.351691 V 21.673034 A 3.7240998,3.7240998 0 0 0 33.893919,18.321345 Z M 28.568457,66.064306 15.980999,56.009236 A 3.7240998,3.7240998 0 0 0 13.672056,55.189932 H 2.499757 V 40.293534 h 11.172299 a 3.7240998,3.7240998 0 0 0 2.308943,-0.819302 L 28.568457,29.419163 Z M 60.819162,26.663328 a 3.7393377,3.7393377 0 0 0 -5.288223,5.288221 22.344598,22.344598 0 0 1 -1.415157,32.921045 3.7240998,3.7240998 0 0 0 2.383424,6.554415 3.7240998,3.7240998 0 0 0 2.383424,-0.856542 29.792798,29.792798 0 0 0 1.936532,-43.907139 z M 50.279958,37.20253 a 3.7393379,3.7393379 0 1 0 -5.288221,5.288222 7.4481998,7.4481998 0 0 1 2.197219,5.250981 7.4481998,7.4481998 0 0 1 -2.644111,5.697872 3.7240998,3.7240998 0 0 0 -0.484133,5.250983 3.7240998,3.7240998 0 0 0 5.250981,0.446892 14.896401,14.896401 0 0 0 5.325463,-11.395747 15.119846,15.119846 0 0 0 -4.357198,-10.539203 z"
     id="path2-2" /></g></svg>