<?xml version="1.0" encoding="UTF-8" standalone="no"?>
<!-- Generator: Adobe Illustrator 19.0.0, SVG Export Plug-In . SVG Version: 6.00 Build 0)  -->

<svg
   xmlns:dc="http://purl.org/dc/elements/1.1/"
   xmlns:cc="http://creativecommons.org/ns#"
   xmlns:rdf="http://www.w3.org/1999/02/22-rdf-syntax-ns#"
   xmlns:svg="http://www.w3.org/2000/svg"
   xmlns="http://www.w3.org/2000/svg"
   xmlns:sodipodi="http://sodipodi.sourceforge.net/DTD/sodipodi-0.dtd"
   xmlns:inkscape="http://www.inkscape.org/namespaces/inkscape"
   version="1.1"
   id="Layer_1"
   x="0px"
   y="0px"
   viewBox="0 0 30 24"
   xml:space="preserve"
   sodipodi:docname="add-video.svg"
   inkscape:version="0.92.5 (2060ec1f9f, 2020-04-08)"
   width="30"
   height="24"><metadata
   id="metadata38"><rdf:RDF><cc:Work
       rdf:about=""><dc:format>image/svg+xml</dc:format><dc:type
         rdf:resource="http://purl.org/dc/dcmitype/StillImage" /><dc:title /></cc:Work></rdf:RDF></metadata><defs
   id="defs36" /><sodipodi:namedview
   pagecolor="#ffffff"
   bordercolor="#666666"
   borderopacity="1"
   objecttolerance="10"
   gridtolerance="10"
   guidetolerance="10"
   inkscape:pageopacity="0"
   inkscape:pageshadow="2"
   inkscape:window-width="1920"
   inkscape:window-height="1016"
   id="namedview34"
   showgrid="false"
   inkscape:zoom="22.627417"
   inkscape:cx="15.922437"
   inkscape:cy="12.499776"
   inkscape:window-x="0"
   inkscape:window-y="27"
   inkscape:window-maximized="1"
   inkscape:current-layer="g4" />

<g
   id="g3"
   transform="translate(0,-306)">
</g>
<g
   id="g5"
   transform="translate(0,-306)">
</g>
<g
   id="g7"
   transform="translate(0,-306)">
</g>
<g
   id="g9"
   transform="translate(0,-306)">
</g>
<g
   id="g11"
   transform="translate(0,-306)">
</g>
<g
   id="g13"
   transform="translate(0,-306)">
</g>
<g
   id="g15"
   transform="translate(0,-306)">
</g>
<g
   id="g17"
   transform="translate(0,-306)">
</g>
<g
   id="g19"
   transform="translate(0,-306)">
</g>
<g
   id="g21"
   transform="translate(0,-306)">
</g>
<g
   id="g23"
   transform="translate(0,-306)">
</g>
<g
   id="g25"
   transform="translate(0,-306)">
</g>
<g
   id="g27"
   transform="translate(0,-306)">
</g>
<g
   id="g29"
   transform="translate(0,-306)">
</g>
<g
   id="g31"
   transform="translate(0,-306)">
</g>
<g
   id="g1035"
   transform="translate(0,-0.43697034)" /><g
   transform="matrix(0.31356117,0,0,0.31356117,4.7676113,-2.6624566)"
   id="g4"
   style="fill:#3f494d;fill-opacity:1;stroke-width:3.18917036"><path
     inkscape:connector-curvature="0"
     style="fill:#3f494d;fill-opacity:1;stroke-width:10.17080879"
     d="m 72.759652,26.354118 a 4.2462411,4.2462411 0 0 0 -4.24624,0 l -14.98923,7.388459 A 12.738723,12.738723 0 0 0 40.785463,21.470941 H 2.5692916 A 12.738723,12.738723 0 0 0 -10.169432,34.209664 V 59.687111 A 12.738723,12.738723 0 0 0 2.5692916,72.425836 H 40.785463 A 12.738723,12.738723 0 0 0 53.524182,60.154197 l 15.116623,7.558312 a 4.2462411,4.2462411 0 0 0 1.868339,0.467085 4.2462411,4.2462411 0 0 0 2.250508,-0.636935 4.2462411,4.2462411 0 0 0 1.995733,-3.609306 V 29.963423 A 4.2462411,4.2462411 0 0 0 72.759652,26.354118 Z M 45.031704,59.687111 a 4.2462411,4.2462411 0 0 1 -4.246241,4.246242 H 2.5692916 A 4.2462411,4.2462411 0 0 1 -1.676949,59.687111 V 34.209664 A 4.2462411,4.2462411 0 0 1 2.5692916,29.963423 H 40.785463 a 4.2462411,4.2462411 0 0 1 4.246241,4.246241 z m 21.2312,-2.63267 -12.738722,-6.369362 v -7.473384 l 12.738722,-6.369361 z"
     id="path2" /></g></svg>