<?xml version="1.0" encoding="UTF-8" standalone="no"?>
<!-- Generator: Adobe Illustrator 19.0.0, SVG Export Plug-In . SVG Version: 6.00 Build 0)  -->

<svg
   xmlns:dc="http://purl.org/dc/elements/1.1/"
   xmlns:cc="http://creativecommons.org/ns#"
   xmlns:rdf="http://www.w3.org/1999/02/22-rdf-syntax-ns#"
   xmlns:svg="http://www.w3.org/2000/svg"
   xmlns="http://www.w3.org/2000/svg"
   xmlns:sodipodi="http://sodipodi.sourceforge.net/DTD/sodipodi-0.dtd"
   xmlns:inkscape="http://www.inkscape.org/namespaces/inkscape"
   version="1.1"
   id="Layer_1"
   x="0px"
   y="0px"
   viewBox="0 0 37 24"
   xml:space="preserve"
   sodipodi:docname="add-text.svg"
   inkscape:version="0.92.5 (2060ec1f9f, 2020-04-08)"
   width="37"
   height="24"><metadata
   id="metadata38"><rdf:RDF><cc:Work
       rdf:about=""><dc:format>image/svg+xml</dc:format><dc:type
         rdf:resource="http://purl.org/dc/dcmitype/StillImage" /><dc:title /></cc:Work></rdf:RDF></metadata><defs
   id="defs36" /><sodipodi:namedview
   pagecolor="#ffffff"
   bordercolor="#666666"
   borderopacity="1"
   objecttolerance="10"
   gridtolerance="10"
   guidetolerance="10"
   inkscape:pageopacity="0"
   inkscape:pageshadow="2"
   inkscape:window-width="1920"
   inkscape:window-height="1016"
   id="namedview34"
   showgrid="false"
   inkscape:zoom="22.627417"
   inkscape:cx="18.746099"
   inkscape:cy="13.497628"
   inkscape:window-x="0"
   inkscape:window-y="27"
   inkscape:window-maximized="1"
   inkscape:current-layer="Layer_1" />

<g
   id="g3"
   transform="translate(0,-306)">
</g>
<g
   id="g5"
   transform="translate(0,-306)">
</g>
<g
   id="g7"
   transform="translate(0,-306)">
</g>
<g
   id="g9"
   transform="translate(0,-306)">
</g>
<g
   id="g11"
   transform="translate(0,-306)">
</g>
<g
   id="g13"
   transform="translate(0,-306)">
</g>
<g
   id="g15"
   transform="translate(0,-306)">
</g>
<g
   id="g17"
   transform="translate(0,-306)">
</g>
<g
   id="g19"
   transform="translate(0,-306)">
</g>
<g
   id="g21"
   transform="translate(0,-306)">
</g>
<g
   id="g23"
   transform="translate(0,-306)">
</g>
<g
   id="g25"
   transform="translate(0,-306)">
</g>
<g
   id="g27"
   transform="translate(0,-306)">
</g>
<g
   id="g29"
   transform="translate(0,-306)">
</g>
<g
   id="g31"
   transform="translate(0,-306)">
</g>
<path
   id="XMLID_20_"
   d="M 17.982554,19.833963 H 15.837312 L 15.837036,4.2620048 h 2.145393 c 0.503606,0 0.996521,-0.6608564 0.996521,-1.1644633 0,-0.5036053 -0.492669,-1.1644632 -0.996274,-1.1644632 h -7.126634 c -0.503607,0 -0.995983,0.6608579 -0.995983,1.1644632 0,0.5036069 0.492101,1.1644633 0.995707,1.1644633 h 2.230205 l 2.75e-4,15.5719582 h -2.230343 c -0.503606,0 -0.995844,0.660858 -0.995844,1.164463 0,0.503609 0.492238,1.164701 0.995844,1.164701 h 7.126651 c 0.503606,0 0.996396,-0.661092 0.996396,-1.164701 0,-0.503605 -0.49279,-1.164463 -0.996396,-1.164463 z"
   inkscape:connector-curvature="0"
   style="fill:#3f494d;fill-opacity:1;stroke-width:1"
   sodipodi:nodetypes="sccssssssccssssss" /><g
   id="g1035"
   transform="translate(0,-0.43697034)" /><path
   id="path2-1"
   style="fill:#3f494d;fill-opacity:1;stroke-width:1"
   d="m 18.567336,8.2462236 h 15.527893 c 0.637707,0 1.062845,-0.5091218 1.062845,-1.1468287 0,-0.637707 -0.425138,-1.146709 -1.062845,-1.146709 H 18.567336 c -0.637708,0 -1.062845,0.509002 -1.062845,1.146709 0,0.6377069 0.425137,1.1468287 1.062845,1.1468287 z m -0.421297,4.9253754 h 14.225245 c 0.637707,0 1.062845,-0.509122 1.062845,-1.146827 0,-0.637708 -0.425138,-1.14671 -1.062845,-1.14671 H 18.146039 c -0.637707,0 -1.062845,0.509002 -1.062845,1.14671 0,0.637705 0.425138,1.146827 1.062845,1.146827 z m 16.286055,2.631838 H 18.567336 c -0.637708,0 -1.062845,0.509002 -1.062845,1.146709 0,0.637707 0.425137,1.146829 1.062845,1.146829 h 15.864758 c 0.637707,0 1.062845,-0.509122 1.062845,-1.146829 0,-0.637707 -0.425138,-1.146709 -1.062845,-1.146709 z M 4.2407301,8.2460471 10.601128,8.2462235 c 0.637706,1.75e-5 1.062844,-0.5091218 1.062844,-1.1468288 0,-0.637707 -0.425138,-1.1466913 -1.062844,-1.146709 L 4.2407301,5.9525094 C 3.603023,5.9524918 3.177885,6.4615113 3.177885,7.0992184 c 0,0.6377069 0.425138,1.1468109 1.0628451,1.1468287 z M 3.0610626,13.171424 9.9270538,13.1716 c 0.6377072,1.6e-5 1.0628442,-0.509121 1.0628442,-1.146828 0,-0.637708 -0.425137,-1.146695 -1.0628442,-1.146711 l -6.8659912,-1.76e-4 c -0.6377071,-1.5e-5 -1.0628451,0.509003 -1.0628451,1.146711 0,0.637706 0.425138,1.146812 1.0628451,1.146828 z m 7.5400654,2.632014 -6.3603979,-1.76e-4 C 3.603023,15.803244 3.177885,16.312264 3.177885,16.94997 c 0,0.637707 0.425138,1.146812 1.0628451,1.14683 l 6.3603979,1.76e-4 c 0.637706,1.7e-5 1.062844,-0.509122 1.062844,-1.146829 0,-0.637707 -0.425138,-1.146691 -1.062844,-1.146709 z"
   inkscape:connector-curvature="0"
   sodipodi:nodetypes="ssssssssssssssssssssssssssssssssssssssssss" /></svg>