<?xml version="1.0" encoding="utf-8"?>
<svg enable-background="new 0 0 24 24" viewBox="0 0 32 32" version="1.1" id="svg4" width="32px" height="32px" xmlns="http://www.w3.org/2000/svg">
  <path fill="#6563ff" d="M 6.822 9.223 L 24.822 9.223 C 25.423 9.223 25.822 8.651 25.822 7.792 C 25.822 6.934 25.423 6.362 24.822 6.362 L 6.822 6.362 C 6.223 6.362 5.822 6.934 5.822 7.792 C 5.822 8.651 6.223 9.223 6.822 9.223 Z M 24.822 12.084 L 10.823 12.084 C 10.222 12.084 9.821 12.656 9.821 13.514 C 9.821 14.372 10.222 14.944 10.823 14.944 L 24.822 14.944 C 25.423 14.944 25.822 14.372 25.822 13.514 C 25.822 12.656 25.423 12.084 24.822 12.084 Z M 24.822 17.805 L 6.822 17.805 C 6.223 17.805 5.822 18.377 5.822 19.236 C 5.822 20.094 6.223 20.666 6.822 20.666 L 24.822 20.666 C 25.423 20.666 25.822 20.094 25.822 19.236 C 25.822 18.377 25.423 17.805 24.822 17.805 Z M 24.822 23.527 L 10.823 23.527 C 10.222 23.527 9.821 24.099 9.821 24.957 C 9.821 25.816 10.222 26.388 10.823 26.388 L 24.822 26.388 C 25.423 26.388 25.822 25.816 25.822 24.957 C 25.822 24.099 25.423 23.527 24.822 23.527 Z" id="path2" style="fill: rgb(63, 73, 77); fill-opacity: 1;"/>
</svg>