<?xml version="1.0" encoding="utf-8"?>
<svg enable-background="new 0 0 24 24" version="1.1" id="svg4" width="32px" height="32px" viewBox="0 0 32 32" xmlns="http://www.w3.org/2000/svg">
  <path fill="#6563ff" d="M 10.955 11.806 C 10.355 11.806 9.954 12.379 9.954 13.238 C 9.954 14.097 10.355 14.67 10.955 14.67 L 20.956 14.67 C 21.556 14.67 21.956 14.097 21.956 13.238 C 21.956 12.379 21.556 11.806 20.956 11.806 L 10.955 11.806 Z M 6.954 8.942 L 24.956 8.942 C 25.555 8.942 25.955 8.369 25.955 7.51 C 25.955 6.651 25.555 6.078 24.956 6.078 L 6.954 6.078 C 6.355 6.078 5.955 6.651 5.955 7.51 C 5.955 8.369 6.355 8.942 6.954 8.942 Z M 20.956 23.261 L 10.955 23.261 C 10.355 23.261 9.954 23.834 9.954 24.693 C 9.954 25.552 10.355 26.125 10.955 26.125 L 20.956 26.125 C 21.556 26.125 21.956 25.552 21.956 24.693 C 21.956 23.834 21.556 23.261 20.956 23.261 Z M 24.956 17.534 L 6.954 17.534 C 6.355 17.534 5.955 18.106 5.955 18.966 C 5.955 19.825 6.355 20.397 6.954 20.397 L 24.956 20.397 C 25.555 20.397 25.955 19.825 25.955 18.966 C 25.955 18.106 25.555 17.534 24.956 17.534 Z" id="path2" style="fill: rgb(63, 73, 77); fill-opacity: 1;"/>
</svg>