<?xml version="1.0" encoding="utf-8"?>
<svg enable-background="new 0 0 24 24" version="1.1" id="svg4" width="32px" height="32px" viewBox="0 0 32 32" xmlns="http://www.w3.org/2000/svg">
  <path fill="#6563ff" d="M 9.773 11.443 C 9.006 11.443 8.494 12.016 8.494 12.875 C 8.494 13.734 9.006 14.307 9.773 14.307 L 22.549 14.307 C 23.316 14.307 23.827 13.734 23.827 12.875 C 23.827 12.016 23.316 11.443 22.549 11.443 L 9.773 11.443 Z M 4.661 8.579 L 27.66 8.579 C 28.425 8.579 28.936 8.006 28.936 7.147 C 28.936 6.288 28.425 5.715 27.66 5.715 L 4.661 5.715 C 3.896 5.715 3.385 6.288 3.385 7.147 C 3.385 8.006 3.896 8.579 4.661 8.579 Z M 22.549 22.898 L 9.773 22.898 C 9.006 22.898 8.494 23.471 8.494 24.33 C 8.494 25.189 9.006 25.762 9.773 25.762 L 22.549 25.762 C 23.316 25.762 23.827 25.189 23.827 24.33 C 23.827 23.471 23.316 22.898 22.549 22.898 Z M 27.66 17.171 L 4.661 17.171 C 3.896 17.171 3.385 17.743 3.385 18.603 C 3.385 19.462 3.896 20.034 4.661 20.034 L 27.66 20.034 C 28.425 20.034 28.936 19.462 28.936 18.603 C 28.936 17.743 28.425 17.171 27.66 17.171 Z" id="path2" style="fill: rgb(63, 73, 77); fill-opacity: 1;"/>
</svg>