<?xml version="1.0" encoding="utf-8"?>
<svg enable-background="new 0 0 24 24" viewBox="0 0 32 32" version="1.1" id="svg4" width="32px" height="32px" xmlns="http://www.w3.org/2000/svg">
  <path fill="#6563ff" d="M 4.525 8.957 L 26.207 8.957 C 26.931 8.957 27.411 8.385 27.411 7.526 C 27.411 6.668 26.931 6.096 26.207 6.096 L 4.525 6.096 C 3.803 6.096 3.32 6.668 3.32 7.526 C 3.32 8.385 3.803 8.957 4.525 8.957 Z M 26.207 11.818 L 9.344 11.818 C 8.62 11.818 8.137 12.39 8.137 13.248 C 8.137 14.106 8.62 14.678 9.344 14.678 L 26.207 14.678 C 26.931 14.678 27.411 14.106 27.411 13.248 C 27.411 12.39 26.931 11.818 26.207 11.818 Z M 26.207 17.539 L 4.525 17.539 C 3.803 17.539 3.32 18.111 3.32 18.97 C 3.32 19.828 3.803 20.4 4.525 20.4 L 26.207 20.4 C 26.931 20.4 27.411 19.828 27.411 18.97 C 27.411 18.111 26.931 17.539 26.207 17.539 Z M 26.207 23.261 L 9.344 23.261 C 8.62 23.261 8.137 23.833 8.137 24.691 C 8.137 25.55 8.62 26.122 9.344 26.122 L 26.207 26.122 C 26.931 26.122 27.411 25.55 27.411 24.691 C 27.411 23.833 26.931 23.261 26.207 23.261 Z" id="path2" style="fill: rgb(63, 73, 77); fill-opacity: 1;"/>
</svg>