<?xml version="1.0" encoding="utf-8"?>
<svg enable-background="new 0 0 24 24" viewBox="0 0 32 32" version="1.1" id="svg4" width="32px" height="32px" xmlns="http://www.w3.org/2000/svg">
  <path fill="#6563ff" d="M 7.573 8.904 L 25.571 8.904 C 26.171 8.904 26.572 8.334 26.572 7.478 C 26.572 6.623 26.171 6.053 25.571 6.053 L 7.573 6.053 C 6.973 6.053 6.572 6.623 6.572 7.478 C 6.572 8.334 6.973 8.904 7.573 8.904 Z M 7.573 14.605 L 21.572 14.605 C 22.172 14.605 22.572 14.035 22.572 13.18 C 22.572 12.325 22.172 11.755 21.572 11.755 L 7.573 11.755 C 6.973 11.755 6.572 12.325 6.572 13.18 C 6.572 14.035 6.973 14.605 7.573 14.605 Z M 25.571 17.456 L 7.573 17.456 C 6.973 17.456 6.572 18.026 6.572 18.882 C 6.572 19.737 6.973 20.307 7.573 20.307 L 25.571 20.307 C 26.171 20.307 26.572 19.737 26.572 18.882 C 26.572 18.026 26.171 17.456 25.571 17.456 Z M 21.572 23.158 L 7.573 23.158 C 6.973 23.158 6.572 23.728 6.572 24.583 C 6.572 25.439 6.973 26.009 7.573 26.009 L 21.572 26.009 C 22.172 26.009 22.572 25.439 22.572 24.583 C 22.572 23.728 22.172 23.158 21.572 23.158 Z" id="path2" style="fill: rgb(63, 73, 77); fill-opacity: 1;"/>
</svg>