<?xml version="1.0" encoding="utf-8"?>
<svg height="32px" viewBox="0 0 32 32" width="32px" fill="#000000" version="1.1" id="svg6" xmlns="http://www.w3.org/2000/svg">
  <path d="M0 0h24v24H0V0z" fill="none" id="path2"/>
  <path d="M 21.457 15.497 C 22.842 14.54 23.814 12.968 23.814 11.511 C 23.814 8.283 21.314 5.797 18.1 5.797 L 9.171 5.797 L 9.171 25.797 L 19.228 25.797 C 22.214 25.797 24.528 23.368 24.528 20.383 C 24.528 18.211 23.3 16.354 21.457 15.497 Z M 13.457 9.368 L 17.742 9.368 C 18.928 9.368 19.885 10.326 19.885 11.511 C 19.885 12.697 18.928 13.654 17.742 13.654 L 13.457 13.654 L 13.457 9.368 Z M 18.457 22.226 L 13.457 22.226 L 13.457 17.94 L 18.457 17.94 C 19.642 17.94 20.6 18.897 20.6 20.083 C 20.6 21.268 19.642 22.226 18.457 22.226 Z" id="path4" style="fill:#3f494d;fill-opacity:1"/>
</svg>