<?xml version="1.0" encoding="utf-8"?>
<svg class="ionicon" viewBox="0 0 32 32" version="1.1" id="svg6" width="32" height="32" xmlns="http://www.w3.org/2000/svg">
  <title id="title2">Close</title>
  <rect x="7.919" y="-11.217" width="18.373" height="3.038" style="stroke-linecap: round; stroke-linejoin: round; fill: rgb(255, 255, 255); paint-order: stroke; stroke-width: 4px;" transform="matrix(0.989072, -0.147432, -0.147432, -0.989072, -2.486653, 2.451568)" rx="1.638" ry="1.638"/>
  <path d="M 9.548 13.263 L 22.441 13.263 C 22.874 13.263 23.224 13.627 23.224 14.076 L 23.224 25.702 C 23.224 26.152 22.874 26.516 22.441 26.516 L 9.548 26.516 C 9.115 26.516 8.765 26.152 8.765 25.702 L 8.765 14.076 C 8.765 13.627 9.115 13.263 9.548 13.263 Z M 11.292 16.648 L 11.268 23.554 C 11.267 23.981 11.599 24.328 12.01 24.33 C 12.421 24.331 12.755 23.986 12.756 23.559 L 12.781 16.654 C 12.782 16.227 12.45 15.879 12.04 15.877 C 11.629 15.875 11.294 16.221 11.292 16.648 Z M 15.007 16.577 L 14.983 23.482 C 14.981 23.909 15.313 24.257 15.725 24.259 C 16.136 24.26 16.469 23.915 16.471 23.488 L 16.495 16.583 C 16.497 16.156 16.165 15.808 15.754 15.806 C 15.344 15.804 15.009 16.149 15.007 16.577 Z M 19 16.51 L 18.977 23.415 C 18.975 23.843 19.307 24.191 19.718 24.191 C 20.129 24.192 20.463 23.847 20.465 23.42 L 20.489 16.515 C 20.49 16.088 20.159 15.741 19.748 15.738 C 19.337 15.738 19.002 16.083 19 16.51 Z" style="stroke-linecap: round; stroke-linejoin: round; fill: rgb(255, 255, 255); paint-order: stroke; stroke-width: 4px;"/>
  <path style="fill: none; stroke-linecap: round; stroke-linejoin: round; stroke: rgb(255, 255, 255); stroke-width: 2px;" d="M 13.15 7.711 L 13.359 7.119 L 13.643 6.719 L 14.121 6.334 L 14.385 6.097 L 14.775 5.913 L 15.201 5.806 L 15.748 5.773 L 16.223 5.817 L 16.698 5.932 L 17.101 6.103 L 17.532 6.353 L 18.068 6.867 L 18.384 7.377 L 18.585 7.911" transform="matrix(0.989072, -0.147432, 0.147432, 0.989072, -0.835333, 2.414146)"/>
</svg>