<?xml version="1.0" encoding="utf-8"?>
<svg class="ionicon" viewBox="0 0 32 32" version="1.1" id="svg6" width="32" height="32" xmlns="http://www.w3.org/2000/svg">
  <title id="title2">Close</title>
  <g transform="matrix(1.074107, 0, 0, 1.074107, -1.304286, -1.202719)">
    <rect x="7.919" y="-11.217" width="18.373" height="3.038" style="stroke-linecap: round; stroke-linejoin: round; fill: rgb(255, 255, 255); paint-order: stroke; stroke-width: 4px;" transform="matrix(0.989072, -0.147432, -0.147432, -0.989072, -2.34635, 2.776578)" rx="1.638" ry="1.638"/>
    <path d="M 9.686 13.365 L 22.579 13.365 C 23.012 13.365 23.362 13.729 23.362 14.178 L 23.362 25.804 C 23.362 26.254 23.012 26.618 22.579 26.618 L 9.686 26.618 C 9.253 26.618 8.903 26.254 8.903 25.804 L 8.903 14.178 C 8.903 13.729 9.253 13.365 9.686 13.365 Z M 11.43 16.75 L 11.406 23.656 C 11.405 24.083 11.737 24.43 12.148 24.432 C 12.559 24.433 12.893 24.088 12.894 23.661 L 12.919 16.756 C 12.92 16.329 12.588 15.981 12.178 15.979 C 11.767 15.977 11.432 16.323 11.43 16.75 Z M 15.145 16.679 L 15.121 23.584 C 15.119 24.011 15.451 24.359 15.863 24.361 C 16.274 24.362 16.607 24.017 16.609 23.59 L 16.633 16.685 C 16.635 16.258 16.303 15.91 15.892 15.908 C 15.482 15.906 15.147 16.251 15.145 16.679 Z M 19.138 16.612 L 19.115 23.517 C 19.113 23.945 19.445 24.293 19.856 24.293 C 20.267 24.294 20.601 23.949 20.603 23.522 L 20.627 16.617 C 20.628 16.19 20.297 15.843 19.886 15.84 C 19.475 15.84 19.14 16.185 19.138 16.612 Z" style="stroke-linecap: round; stroke-linejoin: round; fill: rgb(255, 255, 255); paint-order: stroke; stroke-width: 4px;"/>
    <path style="fill: none; stroke-linecap: round; stroke-linejoin: round; stroke: rgb(255, 255, 255); stroke-width: 2px;" d="M 12.402 8.586 L 12.49 8.291 L 12.671 7.947 L 13.035 7.4 L 13.339 7.059 L 13.616 6.811 L 13.985 6.549 L 14.484 6.298 L 15.03 6.151 L 15.731 6.106 L 16.339 6.166 L 16.947 6.324 L 17.464 6.558 L 18.016 6.899 L 18.35 7.165 L 18.702 7.602 L 18.956 7.966 L 19.107 8.3 L 19.246 8.561 L 19.315 8.779" transform="matrix(0.989072, -0.147432, 0.147432, 0.989072, -0.923964, 2.419381)"/>
  </g>
</svg>