<?xml version="1.0" encoding="UTF-8" standalone="no"?>
<svg
   xmlns:dc="http://purl.org/dc/elements/1.1/"
   xmlns:cc="http://creativecommons.org/ns#"
   xmlns:rdf="http://www.w3.org/1999/02/22-rdf-syntax-ns#"
   xmlns:svg="http://www.w3.org/2000/svg"
   xmlns="http://www.w3.org/2000/svg"
   xmlns:sodipodi="http://sodipodi.sourceforge.net/DTD/sodipodi-0.dtd"
   xmlns:inkscape="http://www.inkscape.org/namespaces/inkscape"
   height="24px"
   viewBox="0 0 24 24"
   width="24px"
   fill="#000000"
   version="1.1"
   id="svg6"
   sodipodi:docname="fliph.svg"
   inkscape:version="0.92.5 (2060ec1f9f, 2020-04-08)">
  <metadata
     id="metadata12">
    <rdf:RDF>
      <cc:Work
         rdf:about="">
        <dc:format>image/svg+xml</dc:format>
        <dc:type
           rdf:resource="http://purl.org/dc/dcmitype/StillImage" />
        <dc:title></dc:title>
      </cc:Work>
    </rdf:RDF>
  </metadata>
  <defs
     id="defs10" />
  <sodipodi:namedview
     pagecolor="#ffffff"
     bordercolor="#666666"
     borderopacity="1"
     objecttolerance="10"
     gridtolerance="10"
     guidetolerance="10"
     inkscape:pageopacity="0"
     inkscape:pageshadow="2"
     inkscape:window-width="1920"
     inkscape:window-height="1016"
     id="namedview8"
     showgrid="false"
     inkscape:zoom="16"
     inkscape:cx="10.571624"
     inkscape:cy="12.607035"
     inkscape:window-x="0"
     inkscape:window-y="27"
     inkscape:window-maximized="1"
     inkscape:current-layer="g884" />
  <g
     id="g861"
     style="fill:#3f494d;fill-opacity:1;stroke-width:0.97591609"
     transform="matrix(-0.00295385,0.893078,1.175658,0.00388848,14.385494,1.1077065)">
    <g
       id="g884"
       style="fill:#3f494d;fill-opacity:1;stroke-width:0.97591609">
      <path
         inkscape:connector-curvature="0"
         style="fill:#3f494d;fill-opacity:1;stroke-width:0.95241213"
         d="m 12.218456,-8.3865588 a 1.2313837,0.93540953 1.4131702e-7 0 1 0.940775,-1.1294881 l 2.390866,-0.4523456 a 1.2313837,0.93540953 1.4131702e-7 0 1 1.449931,0.7145579 1.2313837,0.93540953 1.4131702e-7 0 1 -0.903833,1.1295806 l -2.390868,0.4523462 a 1.2313837,0.93540953 1.4131702e-7 0 1 -1.486871,-0.714651 z M 21.409174,7.5385815 1.7234349,3.7474626 A 1.2313837,0.93540953 1.4131702e-7 0 1 0.79141679,2.8658307 l 0.012218,-2.80621302 A 1.2313837,0.93540953 1.4131702e-7 0 1 2.0390845,-0.8726929 L 21.741115,-0.823192 a 1.2313837,0.93540953 1.4131702e-7 0 1 1.227304,0.93849829 l -0.0285,6.54783151 a 1.2313837,0.93540953 1.4131702e-7 0 1 -0.47114,0.737793 1.2313837,0.93540953 1.4131702e-7 0 1 -1.059841,0.1937743 z M 20.501593,1.0445237 3.2623161,1.0012099 3.2573475,2.1424034 20.48237,5.459632 Z M 5.0458974,-7.0388746 A 1.2313837,0.93540953 1.4131702e-7 0 1 5.9497713,-8.1778095 L 8.340598,-8.6208014 a 1.2313837,0.93540953 1.4131702e-7 0 1 1.4869922,0.6865886 l -9.777e-4,0.2244972 A 1.2313837,0.93540953 1.4131702e-7 0 1 8.8866943,-6.7766625 L 6.4958675,-6.3336704 A 1.2313837,0.93540953 1.4131702e-7 0 1 5.0458974,-7.0388746 Z m -1.753076,1.0339058 -0.00814,1.8708088 A 1.2313837,0.93540967 1.4131702e-7 0 1 0.82192742,-4.14035 l 0.008149,-1.8708089 a 1.2313837,0.93540967 1.4131702e-7 0 1 2.46275398,0.00619 z M 20.545416,-9.0204272 A 1.2402184,0.94212066 1.4131702e-7 0 1 20.25803,-10.891979 l 1.232355,-0.221403 a 1.2313837,0.93540953 1.4131702e-7 0 1 1.05825,0.171034 1.2313837,0.93540953 1.4131702e-7 0 1 0.464585,0.768206 l -0.0041,0.9354056 a 1.240218,0.94212044 1.4131702e-7 0 1 -2.463731,0.2183092 z m -15.4033563,5.349287 a 1.2313837,0.93540953 1.4131702e-7 0 1 1.2354496,-0.9323106 l 2.4627533,0.00619 a 1.2313837,0.93540956 1.4131702e-7 0 1 -0.00814,1.8708089 l -2.4627534,-0.00619 a 1.2313837,0.93540953 1.4131702e-7 0 1 -1.227312,-0.9384983 z m 7.3882593,0.018563 a 1.2313837,0.93540953 1.4131702e-7 0 1 1.235449,-0.9323104 l 2.462756,0.00619 a 1.2313837,0.93540953 1.4131702e-7 0 1 -0.0081,1.8708088 l -2.462754,-0.00619 a 1.2313837,0.93540953 1.4131702e-7 0 1 -1.227312,-0.938498 z m 7.388262,0.018563 a 1.2313837,0.93540953 1.4131702e-7 0 1 0.606878,-0.8029318 l 0.0046,-1.0663611 a 1.2313837,0.93540953 1.4131702e-7 0 1 2.462753,0.00619 l -0.0081,1.8708089 a 1.2313837,0.93540953 1.4131702e-7 0 1 -1.235451,0.9323105 l -0.603374,-0.00152 A 1.2313837,0.93540953 1.4131702e-7 0 1 19.918582,-3.634016 Z"
         id="path2" />
    </g>
  </g>
</svg>
