<?xml version="1.0" encoding="utf-8"?>
<svg height="32px" viewBox="0 0 32 32" width="32px" fill="#000000" version="1.1" id="svg6" xmlns="http://www.w3.org/2000/svg">
  <path style="fill:#3f494d;fill-opacity:1;stroke-width:0.97591609" d="M 15.889 8.503 C 15.758 7.96 16.098 7.415 16.644 7.294 L 18.578 6.801 C 19.111 6.689 19.636 7.026 19.757 7.557 C 19.889 8.091 19.564 8.631 19.031 8.765 L 17.097 9.258 C 16.553 9.39 16.008 9.049 15.889 8.503 Z M 23.426 25.44 L 7.461 21.487 C 7.027 21.38 6.715 20.997 6.701 20.551 L 6.693 17.559 C 6.693 17.008 7.138 16.56 7.689 16.559 L 23.645 16.524 C 24.197 16.523 24.644 16.968 24.645 17.519 L 24.661 24.5 C 24.663 24.807 24.524 25.098 24.284 25.288 C 24.046 25.489 23.729 25.567 23.426 25.5 L 23.426 25.44 Z M 22.652 18.521 L 8.691 18.552 L 8.693 19.767 L 22.664 23.228 L 22.652 18.521 Z M 10.088 9.972 C 9.948 9.434 10.275 8.887 10.813 8.753 L 12.747 8.271 C 13.281 8.137 13.822 8.462 13.956 8.996 L 13.956 9.236 C 13.97 9.705 13.655 10.121 13.2 10.234 L 11.267 10.717 C 10.737 10.83 10.213 10.499 10.088 9.972 Z M 8.674 11.082 L 8.678 13.076 C 8.681 13.844 7.851 14.326 7.185 13.943 C 6.876 13.767 6.684 13.437 6.684 13.081 L 6.68 11.086 C 6.678 10.318 7.508 9.837 8.173 10.22 C 8.483 10.396 8.673 10.726 8.674 11.082 Z M 22.629 7.79 C 21.862 7.884 21.281 7.111 21.584 6.399 C 21.724 6.07 22.029 5.84 22.386 5.796 L 23.382 5.555 C 23.679 5.478 23.997 5.544 24.24 5.731 C 24.489 5.928 24.631 6.231 24.621 6.549 L 24.623 7.546 C 24.714 8.314 23.941 8.893 23.23 8.588 C 22.903 8.449 22.674 8.144 22.629 7.79 Z M 10.186 13.562 C 10.184 13.011 10.63 12.564 11.181 12.562 L 13.176 12.557 C 13.943 12.556 14.423 13.387 14.041 14.053 C 13.863 14.362 13.536 14.552 13.179 14.552 L 11.185 14.557 C 10.635 14.558 10.187 14.112 10.186 13.562 Z M 16.169 13.549 C 16.168 12.998 16.613 12.55 17.164 12.549 L 19.159 12.545 C 19.926 12.543 20.408 13.374 20.026 14.039 C 19.849 14.347 19.52 14.538 19.163 14.539 L 17.168 14.543 C 16.618 14.545 16.171 14.099 16.169 13.549 Z M 22.153 13.535 C 22.153 13.183 22.338 12.856 22.639 12.676 L 22.637 11.54 C 22.636 10.771 23.466 10.291 24.131 10.673 C 24.44 10.85 24.631 11.179 24.632 11.536 L 24.636 13.53 C 24.638 14.081 24.192 14.528 23.642 14.529 L 23.153 14.531 C 22.602 14.532 22.154 14.087 22.153 13.535 Z" id="path2"/>
</svg>