<?xml version="1.0" encoding="UTF-8" standalone="no"?>
<svg
   xmlns:dc="http://purl.org/dc/elements/1.1/"
   xmlns:cc="http://creativecommons.org/ns#"
   xmlns:rdf="http://www.w3.org/1999/02/22-rdf-syntax-ns#"
   xmlns:svg="http://www.w3.org/2000/svg"
   xmlns="http://www.w3.org/2000/svg"
   xmlns:sodipodi="http://sodipodi.sourceforge.net/DTD/sodipodi-0.dtd"
   xmlns:inkscape="http://www.inkscape.org/namespaces/inkscape"
   height="24px"
   viewBox="0 0 24 24"
   width="24px"
   fill="#000000"
   version="1.1"
   id="svg6"
   sodipodi:docname="flipv.svg"
   inkscape:version="0.92.5 (2060ec1f9f, 2020-04-08)">
  <metadata
     id="metadata12">
    <rdf:RDF>
      <cc:Work
         rdf:about="">
        <dc:format>image/svg+xml</dc:format>
        <dc:type
           rdf:resource="http://purl.org/dc/dcmitype/StillImage" />
      </cc:Work>
    </rdf:RDF>
  </metadata>
  <defs
     id="defs10" />
  <sodipodi:namedview
     pagecolor="#ffffff"
     bordercolor="#666666"
     borderopacity="1"
     objecttolerance="10"
     gridtolerance="10"
     guidetolerance="10"
     inkscape:pageopacity="0"
     inkscape:pageshadow="2"
     inkscape:window-width="1920"
     inkscape:window-height="1016"
     id="namedview8"
     showgrid="false"
     inkscape:zoom="13.906433"
     inkscape:cx="-5.333619"
     inkscape:cy="18.05809"
     inkscape:window-x="0"
     inkscape:window-y="27"
     inkscape:window-maximized="1"
     inkscape:current-layer="svg6" />
  <path
     inkscape:connector-curvature="0"
     style="fill:#3f494d;fill-opacity:1;stroke-width:0.97591609"
     d="m 12.101039,3.9983771 a 1.0997277,1.0997277 0 0 1 0.832852,-1.332513 l 2.132276,-0.543578 a 1.0997277,1.0997277 0 0 1 1.299522,0.832923 1.0997277,1.0997277 0 0 1 -0.799859,1.332442 l -2.132277,0.543577 A 1.0997277,1.0997277 0 0 1 12.101039,3.9983771 Z M 20.41227,22.675434 2.8069525,18.315402 A 1.0997277,1.0997277 0 0 1 1.9688779,17.283507 l -0.00729,-3.299175 a 1.0997277,1.0997277 0 0 1 1.0972959,-1.102155 l 17.5955992,-0.03887 a 1.0997277,1.0997277 0 0 1 1.102157,1.097297 l 0.01701,7.698076 a 1.0997277,1.0997277 0 0 1 -0.415975,0.869705 1.0997277,1.0997277 0 0 1 -0.945255,0.233032 z m -0.85265,-7.630245 -15.3961509,0.03401 0.00296,1.341664 15.4046512,3.815027 z M 5.7041875,5.6181141 a 1.0997277,1.0997277 0 0 1 0.7998353,-1.343438 l 2.1323008,-0.532581 a 1.0997277,1.0997277 0 0 1 1.3324399,0.799859 l 5.72e-4,0.263934 A 1.0997277,1.0997277 0 0 1 9.135986,5.9074601 L 7.0036843,6.4400411 A 1.0997277,1.0997277 0 0 1 5.7041875,5.6181141 Z m -1.5589128,1.224144 0.00486,2.19945 a 1.0997283,1.0997281 89.68393 0 1 -2.1994508,0.0049 l -0.00486,-2.19945 a 1.0997283,1.0997281 89.68393 0 1 2.1994508,-0.0049 z M 19.53348,3.2121471 A 1.1076178,1.1076178 0 0 1 19.264687,1.0132801 L 20.36383,0.74691715 a 1.0997277,1.0997277 0 0 1 0.946199,0.195861 1.0997277,1.0997277 0 0 1 0.419889,0.90085095 l 0.0024,1.099727 a 1.1076191,1.1076191 0 0 1 -2.198862,0.268792 z M 5.8119086,9.5769051 a 1.0997277,1.0997277 0 0 1 1.0972951,-1.102154 l 2.1994496,-0.0049 a 1.0997281,1.0997281 0 0 1 0.00486,2.1994499 l -2.1994458,0.0049 A 1.0997277,1.0997277 0 0 1 5.8119059,9.5769051 Z m 6.5983484,-0.01458 a 1.0997277,1.0997277 0 0 1 1.097295,-1.102154 l 2.199451,-0.0049 a 1.0997282,1.0997282 0 0 1 0.0049,2.1994509 l -2.199451,0.0049 a 1.0997277,1.0997277 0 0 1 -1.10216,-1.0972949 z m 6.59835,-0.01457 a 1.0997277,1.0997277 0 0 1 0.536777,-0.946955 l -0.0028,-1.253685 a 1.0997277,1.0997277 0 0 1 2.19945,-0.0049 l 0.0049,2.199449 a 1.0997277,1.0997277 0 0 1 -1.097306,1.1021979 l -0.538865,0.0012 A 1.0997277,1.0997277 0 0 1 19.008608,9.5477671 Z"
     id="path2" />
</svg>
