<?xml version="1.0" encoding="utf-8"?>
<svg height="32px" viewBox="0 0 32 32" width="32px" fill="#000000" version="1.1" id="svg6" xmlns="http://www.w3.org/2000/svg">
  <rect style="opacity:1;vector-effect:none;fill:#3f494d;fill-opacity:1;fill-rule:evenodd;stroke-width:0.72421306;stroke-linecap:butt;stroke-linejoin:miter;stroke-miterlimit:4;stroke-dasharray:none;stroke-dashoffset:0;stroke-opacity:1" id="rect826-3-6" width="9.181" height="2.155" x="9.71" y="7.229" rx="1.154" ry="1.243" transform="matrix(-0.000158, -1, -1, 0.000256, 17.533138, 22.941612)"/>
  <rect style="opacity:1;vector-effect:none;fill:#3f494d;fill-opacity:1;fill-rule:evenodd;stroke-width:0.724213;stroke-linecap:butt;stroke-linejoin:miter;stroke-miterlimit:4;stroke-dasharray:none;stroke-dashoffset:0;stroke-opacity:1" id="rect826-3-6-3-6" width="6.232" height="2.001" x="-1.537" y="4.029" rx="1.088" ry="1.243" transform="matrix(0.723821, -0.689988, 0.689559, 0.72423, 3.071887, 3.525069)"/>
  <rect style="opacity:1;vector-effect:none;fill:#3f494d;fill-opacity:1;fill-rule:evenodd;stroke-width:0.724213;stroke-linecap:butt;stroke-linejoin:miter;stroke-miterlimit:4;stroke-dasharray:none;stroke-dashoffset:0;stroke-opacity:1" id="rect826-3-6-3-6-5" width="6.232" height="2.001" x="10.484" y="4.495" rx="1.114" ry="1.243" transform="matrix(-0.723821, -0.689988, -0.689559, 0.72423, 24.447218, 11.482181)"/>
  <path style="fill:#3f494d;fill-opacity:1;stroke-width:1" d="M 7.868 17.865 L 16.468 22.834 C 16.764 23.004 17.128 23.004 17.424 22.834 L 26.024 17.865 C 26.659 17.497 26.659 16.58 26.024 16.212 L 17.424 11.243 C 17.128 11.072 16.764 11.072 16.468 11.243 L 7.868 16.212 C 7.234 16.58 7.234 17.497 7.868 17.865 Z M 16.946 13.173 L 23.635 16.995 L 16.946 20.865 L 10.257 17.034 L 16.946 13.173 Z M 25.069 20.617 L 16.946 25.309 L 8.824 20.617 C 8.368 20.349 7.781 20.504 7.515 20.961 C 7.249 21.42 7.408 22.007 7.868 22.27 L 16.468 27.239 C 16.764 27.41 17.128 27.41 17.424 27.239 L 26.024 22.27 C 26.485 22.007 26.644 21.42 26.378 20.961 C 26.112 20.504 25.525 20.349 25.069 20.617 L 25.069 20.617 Z" id="path2"/>
</svg>