<?xml version="1.0" encoding="utf-8"?>
<svg height="32px" viewBox="0 0 32 32" width="32px" fill="#000000" version="1.1" id="svg6" xmlns="http://www.w3.org/2000/svg">
  <rect style="opacity:1;vector-effect:none;fill:#3f494d;fill-opacity:1;fill-rule:evenodd;stroke-width:0.72421306;stroke-linecap:butt;stroke-linejoin:miter;stroke-miterlimit:4;stroke-dasharray:none;stroke-dashoffset:0;stroke-opacity:1" id="rect826-3-6" width="9.181" height="2.155" x="0.108" y="-7.231" rx="1.154" ry="1.243" transform="matrix(-0.000158, 1, -1, -0.000256, 3.387443, 3.761024)"/>
  <rect style="opacity:1;vector-effect:none;fill:#3f494d;fill-opacity:1;fill-rule:evenodd;stroke-width:0.724213;stroke-linecap:butt;stroke-linejoin:miter;stroke-miterlimit:4;stroke-dasharray:none;stroke-dashoffset:0;stroke-opacity:1" id="rect826-3-6-3-6" width="6.232" height="2.001" x="-5.233" y="3.077" rx="1.088" ry="1.243" transform="matrix(0.723821, 0.689988, 0.689559, -0.72423, 6.718748, 15.439798)"/>
  <rect style="opacity:1;vector-effect:none;fill:#3f494d;fill-opacity:1;fill-rule:evenodd;stroke-width:0.724213;stroke-linecap:butt;stroke-linejoin:miter;stroke-miterlimit:4;stroke-dasharray:none;stroke-dashoffset:0;stroke-opacity:1" id="rect826-3-6-3-6-5" width="6.232" height="2.001" x="-3.714" y="-11.601" rx="1.114" ry="1.243" transform="matrix(-0.723821, 0.689988, -0.689559, -0.72423, 3.387443, 3.761024)"/>
  <path style="fill:#3f494d;fill-opacity:1;stroke-width:1" d="M 8.184 18.101 L 16.784 23.07 C 17.08 23.24 17.444 23.24 17.74 23.07 L 26.34 18.101 C 26.974 17.733 26.974 16.816 26.34 16.448 L 17.74 11.479 C 17.444 11.308 17.08 11.308 16.784 11.479 L 8.184 16.448 C 7.549 16.816 7.549 17.733 8.184 18.101 Z M 17.262 13.409 L 23.951 17.231 L 17.262 21.101 L 10.573 17.269 L 17.262 13.409 Z M 25.384 20.853 L 17.262 25.545 L 9.139 20.853 C 8.683 20.585 8.096 20.74 7.83 21.197 C 7.565 21.656 7.723 22.243 8.184 22.506 L 16.784 27.475 C 17.08 27.646 17.444 27.646 17.74 27.475 L 26.34 22.506 C 26.8 22.243 26.959 21.656 26.693 21.197 C 26.427 20.74 25.841 20.585 25.384 20.853 L 25.384 20.853 Z" id="path2"/>
</svg>