<?xml version="1.0" encoding="utf-8"?>
<svg height="32px" viewBox="0 0 32 32" width="32px" fill="#000000" version="1.1" id="svg6" xmlns="http://www.w3.org/2000/svg">
  <path d="M0 0h24v24H0V0z" fill="none" id="path2"/>
  <path id="text818" style="font-style:normal;font-variant:normal;font-weight:bold;font-stretch:normal;font-size:29.15095139px;line-height:1.25;font-family:Gayathri;-inkscape-font-specification:'Gayathri Bold';letter-spacing:0px;word-spacing:0px;fill:#3F494D;fill-opacity:1;stroke:none;stroke-width:1" d="M 16.278 5.74 C 15.822 5.74 14.856 5.854 14.656 6.324 L 6.571 25.041 C 6.556 25.083 6.541 25.127 6.541 25.17 C 6.541 25.526 7.126 25.738 7.696 25.738 C 8.165 25.738 8.634 25.596 8.762 25.297 L 11.381 19.219 L 20.25 19.219 L 22.854 25.127 C 23.053 25.582 23.851 25.738 24.42 25.738 C 24.876 25.738 25.944 25.554 25.944 24.97 C 25.944 24.914 25.929 24.856 25.901 24.785 L 17.758 6.338 C 17.544 5.868 16.761 5.74 16.278 5.74 Z M 15.766 9.07 L 19.537 17.625 L 12.078 17.625 L 15.766 9.07 Z"/>
</svg>