<?xml version="1.0" encoding="utf-8"?>
<svg class="ionicon" viewBox="0 0 32 32" version="1.1" id="svg6" width="32" height="32" xmlns="http://www.w3.org/2000/svg">
  <title id="title2">Close</title>
  <path d="M 25.884 20.272 L 20.222 20.272 C 19.259 20.272 18.658 21.314 19.139 22.147 C 19.362 22.534 19.775 22.772 20.222 22.772 L 23.222 22.772 C 17.899 28.334 8.552 26.049 6.397 18.659 C 6.134 17.757 5.999 16.824 5.997 15.885 C 5.997 14.922 4.955 14.321 4.122 14.802 C 3.735 15.025 3.497 15.438 3.497 15.885 C 3.523 25.507 13.955 31.493 22.276 26.659 C 23.114 26.172 23.893 25.589 24.597 24.922 L 24.597 27.135 C 24.597 28.097 25.638 28.698 26.472 28.217 C 26.858 27.994 27.097 27.581 27.097 27.135 L 27.097 21.51 C 27.09 20.839 26.555 20.292 25.884 20.272 Z M 15.997 3.385 C 12.792 3.394 9.713 4.633 7.397 6.847 L 7.397 4.635 C 7.397 3.672 6.355 3.071 5.522 3.552 C 5.135 3.775 4.897 4.188 4.897 4.635 L 4.897 10.26 C 4.897 10.95 5.456 11.51 6.147 11.51 L 11.772 11.51 C 12.734 11.51 13.335 10.468 12.854 9.635 C 12.631 9.248 12.218 9.01 11.772 9.01 L 8.772 9.01 C 14.094 3.448 23.441 5.733 25.597 13.123 C 25.858 14.02 25.993 14.95 25.997 15.885 C 25.997 16.847 27.038 17.448 27.872 16.967 C 28.258 16.744 28.497 16.331 28.497 15.885 C 28.497 8.981 22.9 3.385 15.997 3.385 Z" id="path2" style="stroke-width: 1; fill-opacity: 1; fill: rgb(255, 255, 255);"/>
</svg>