<?xml version="1.0" encoding="utf-8"?>
<svg class="ionicon" viewBox="0 0 32 32" version="1.1" id="svg6" width="32" height="32" xmlns="http://www.w3.org/2000/svg">
  <title id="title2">Close</title>
  <path d="m 26.890635,20.911025 h -6.213033 a 1.3715305,1.3715305 0 0 0 0,2.743061 h 3.291673 a 10.972244,10.972244 0 0 1 -18.8996899,-7.557133 1.3715305,1.3715305 0 0 0 -2.743061,0 13.715305,13.715305 0 0 0 23.1514349,9.916166 v 2.427609 a 1.3715305,1.3715305 0 0 0 2.743061,0 V 22.26884 A 1.3715305,1.3715305 0 0 0 26.890635,20.911025 Z M 16.041829,2.3816472 A 13.715305,13.715305 0 0 0 6.6056997,6.1807867 v -2.427609 a 1.3715307,1.3715307 0 0 0 -2.7430614,0 V 9.925065 a 1.3715305,1.3715305 0 0 0 1.3715305,1.371531 h 6.1718872 a 1.3715305,1.3715305 0 0 0 0,-2.7430615 H 8.1143827 a 10.972244,10.972244 0 0 1 18.8996903,7.5434185 1.3715305,1.3715305 0 0 0 2.743061,0 A 13.715305,13.715305 0 0 0 16.041829,2.3816472 Z" id="path2" style="stroke-width: 1; fill-opacity: 1; fill: rgb(255, 255, 255);"/>
</svg>