<?xml version="1.0" encoding="UTF-8" standalone="no"?>
<svg
   xmlns:dc="http://purl.org/dc/elements/1.1/"
   xmlns:cc="http://creativecommons.org/ns#"
   xmlns:rdf="http://www.w3.org/1999/02/22-rdf-syntax-ns#"
   xmlns:svg="http://www.w3.org/2000/svg"
   xmlns="http://www.w3.org/2000/svg"
   xmlns:sodipodi="http://sodipodi.sourceforge.net/DTD/sodipodi-0.dtd"
   xmlns:inkscape="http://www.inkscape.org/namespaces/inkscape"
   enable-background="new 0 0 24 24"
   height="24px"
   viewBox="0 0 24 24"
   width="24px"
   fill="#000000"
   version="1.1"
   id="svg6"
   sodipodi:docname="rotation.svg"
   inkscape:version="0.92.5 (2060ec1f9f, 2020-04-08)">
  <metadata
     id="metadata12">
    <rdf:RDF>
      <cc:Work
         rdf:about="">
        <dc:format>image/svg+xml</dc:format>
        <dc:type
           rdf:resource="http://purl.org/dc/dcmitype/StillImage" />
      </cc:Work>
    </rdf:RDF>
  </metadata>
  <defs
     id="defs10" />
  <sodipodi:namedview
     pagecolor="#ffffff"
     bordercolor="#666666"
     borderopacity="1"
     objecttolerance="10"
     gridtolerance="10"
     guidetolerance="10"
     inkscape:pageopacity="0"
     inkscape:pageshadow="2"
     inkscape:window-width="1920"
     inkscape:window-height="1016"
     id="namedview8"
     showgrid="false"
     inkscape:zoom="19.666667"
     inkscape:cx="-2.6898047"
     inkscape:cy="8.7684276"
     inkscape:window-x="0"
     inkscape:window-y="27"
     inkscape:window-maximized="1"
     inkscape:current-layer="svg6" />
  <rect
     height="22.274559"
     width="22.274559"
     id="rect2"
     x="1.0644232"
     y="1.1152706"
     style="fill:none;stroke-width:0.99999994" />
  <path
     style="opacity:1;fill:#ffffff;fill-opacity:1;fill-rule:evenodd;stroke:#3f494d;stroke-width:0.49999997;stroke-linecap:round;stroke-linejoin:miter;stroke-miterlimit:4;stroke-dasharray:none;stroke-dashoffset:0;stroke-opacity:1;paint-order:markers fill stroke"
     id="path822"
     sodipodi:type="arc"
     sodipodi:cx="11.950013"
     sodipodi:cy="12.221088"
     sodipodi:rx="10.696822"
     sodipodi:ry="10.696822"
     sodipodi:start="1.629195"
     sodipodi:end="1.6241057"
     sodipodi:open="true"
     d="M 11.325688,22.899676 A 10.696822,10.696822 0 0 1 1.2706404,11.61035 10.696822,10.696822 0 0 1 12.547163,1.5409472 10.696822,10.696822 0 0 1 22.630906,12.804649 10.696822,10.696822 0 0 1 11.380042,22.902715" />
  <path
     style="opacity:1;fill:#3f494d;fill-opacity:1;fill-rule:evenodd;stroke:none;stroke-width:3.99999976;stroke-linecap:round;stroke-linejoin:miter;stroke-miterlimit:4;stroke-dasharray:32.00000037, 16.00000019;stroke-dashoffset:0;stroke-opacity:1;paint-order:markers fill stroke"
     id="path814"
     sodipodi:type="arc"
     sodipodi:cx="12.214046"
     sodipodi:cy="12.370531"
     sodipodi:rx="5.486599"
     sodipodi:ry="5.4034686"
     sodipodi:start="1.629195"
     sodipodi:end="1.6241057"
     sodipodi:open="true"
     d="M 11.893818,17.764788 A 5.486599,5.4034686 0 0 1 6.7363967,12.062019 5.486599,5.4034686 0 0 1 12.520335,6.9754888 5.486599,5.4034686 0 0 1 17.692474,12.665315 5.486599,5.4034686 0 0 1 11.921697,17.766323" />
  <path
     d="m 12.248895,4.9771382 c -3.8857782,0 -7.039454,3.1536751 -7.039454,7.0394528 0,3.885778 3.1536758,7.039454 7.039454,7.039454 3.885778,0 7.039452,-3.153676 7.039452,-7.039454 0,-3.8857777 -3.153674,-7.0394528 -7.039452,-7.0394528 z m 0.640589,11.3687168 c -0.218223,0.218224 -0.598354,0.06336 -0.598354,-0.24638 v -0.563156 c -0.01407,0 -0.02815,0 -0.04223,0 -0.901051,0 -1.8021,-0.344935 -2.4919667,-1.027762 -1.0066476,-1.006642 -1.2741474,-2.477887 -0.802504,-3.73091 0.1337495,-0.359012 0.6053928,-0.450525 0.8728916,-0.175986 v 0 c 0.1548686,0.154867 0.1900661,0.38013 0.1196711,0.577235 -0.3238146,0.872893 -0.1407892,1.886573 0.563157,2.590518 0.49276,0.492764 1.140391,0.725066 1.78802,0.710986 v -0.661709 c 0,-0.316776 0.380131,-0.471643 0.598354,-0.24638 l 1.140391,1.140391 c 0.14079,0.14079 0.14079,0.359012 0,0.499801 z m 1.780981,-2.907295 v 0 c -0.154867,-0.154868 -0.190064,-0.38013 -0.11967,-0.577234 0.323815,-0.872894 0.140789,-1.886575 -0.563156,-2.590519 -0.492762,-0.492762 -1.140391,-0.732103 -1.780981,-0.718024 0,0 0,0 0,0 v 0.661708 c 0,0.316775 -0.380132,0.471643 -0.598355,0.246381 L 10.460874,9.3275206 c -0.14079,-0.1407892 -0.14079,-0.3590121 0,-0.4998012 l 1.140391,-1.1403916 c 0.218223,-0.218223 0.598353,-0.063353 0.598353,0.2463807 v 0.5701954 c 0.915129,-0.014079 1.837297,0.3167758 2.534203,1.0207211 1.006642,1.006641 1.274141,2.477888 0.802498,3.73091 -0.133751,0.36605 -0.598354,0.457564 -0.865854,0.183025 z"
     id="path4"
     inkscape:connector-curvature="0"
     style="fill:#ffffff;fill-opacity:1;stroke-width:0.99999994" />
</svg>
