<?xml version="1.0" encoding="UTF-8" standalone="no"?>
<!-- Generator: Adobe Illustrator 17.1.0, SVG Export Plug-In . SVG Version: 6.00 Build 0)  -->

<svg
   xmlns:dc="http://purl.org/dc/elements/1.1/"
   xmlns:cc="http://creativecommons.org/ns#"
   xmlns:rdf="http://www.w3.org/1999/02/22-rdf-syntax-ns#"
   xmlns:svg="http://www.w3.org/2000/svg"
   xmlns="http://www.w3.org/2000/svg"
   xmlns:sodipodi="http://sodipodi.sourceforge.net/DTD/sodipodi-0.dtd"
   xmlns:inkscape="http://www.inkscape.org/namespaces/inkscape"
   version="1.1"
   id="Capa_1"
   x="0px"
   y="0px"
   viewBox="0 0 298 298"
   style="enable-background:new 0 0 298 298;"
   xml:space="preserve"
   sodipodi:docname="video.svg"
   inkscape:version="0.92.5 (2060ec1f9f, 2020-04-08)"><metadata
   id="metadata39"><rdf:RDF><cc:Work
       rdf:about=""><dc:format>image/svg+xml</dc:format><dc:type
         rdf:resource="http://purl.org/dc/dcmitype/StillImage" /></cc:Work></rdf:RDF></metadata><defs
   id="defs37" /><sodipodi:namedview
   pagecolor="#ffffff"
   bordercolor="#666666"
   borderopacity="1"
   objecttolerance="10"
   gridtolerance="10"
   guidetolerance="10"
   inkscape:pageopacity="0"
   inkscape:pageshadow="2"
   inkscape:window-width="1920"
   inkscape:window-height="1016"
   id="namedview35"
   showgrid="false"
   inkscape:zoom="0.79194631"
   inkscape:cx="149"
   inkscape:cy="149"
   inkscape:window-x="0"
   inkscape:window-y="27"
   inkscape:window-maximized="1"
   inkscape:current-layer="Capa_1" />
<path
   d="m 279.05932,51.847458 c 0,-11.233051 -9.10593,-20.338983 -20.33898,-20.338983 H 46.855932 c -11.233051,0 -20.338983,9.105932 -20.338983,20.338983 V 248.45763 c 0,11.23305 9.105932,20.33898 20.338983,20.33898 H 258.72034 c 11.23305,0 20.33898,-9.10593 20.33898,-20.33898 z m -175.42373,5.084746 h 36.44068 V 85.74576 H 103.63559 Z M 78.211864,243.37288 H 51.940678 v -28.81356 h 26.271186 z m 0,-157.62712 H 51.940678 V 56.932204 h 26.271186 z m 61.864406,157.62712 h -36.44068 v -28.81356 h 36.44068 z m -9.32203,-69.73898 v -46.96356 c 0,-6.99153 4.97288,-9.57797 10.82203,-5.74831 l 34.09916,22.26441 c 5.84915,3.82966 5.89661,10.09661 0.0474,13.92712 l -34.17034,22.26864 c -5.84915,3.83051 -10.7983,1.24322 -10.7983,-5.7483 z m 71.18644,69.73898 H 165.5 v -28.81356 h 36.44068 z m 0,-157.62712 H 165.5 V 56.932204 h 36.44068 z m 51.69491,157.62712 h -26.27118 v -28.81356 h 26.27118 z m 0,-157.62712 H 227.36441 V 56.932204 h 26.27118 z"
   id="path2"
   inkscape:connector-curvature="0"
   style="stroke-width:0.99999994;fill:#3F494D;fill-opacity:1" />
<g
   id="g4">
</g>
<g
   id="g6">
</g>
<g
   id="g8">
</g>
<g
   id="g10">
</g>
<g
   id="g12">
</g>
<g
   id="g14">
</g>
<g
   id="g16">
</g>
<g
   id="g18">
</g>
<g
   id="g20">
</g>
<g
   id="g22">
</g>
<g
   id="g24">
</g>
<g
   id="g26">
</g>
<g
   id="g28">
</g>
<g
   id="g30">
</g>
<g
   id="g32">
</g>
</svg>