<?xml version="1.0" encoding="utf-8"?>
<svg enable-background="new 0 0 24 24" viewBox="0 0 32 32" version="1.1" id="svg4" width="32px" height="32px" xmlns="http://www.w3.org/2000/svg">
  <path fill="#6563ff" d="M 5.017 8.805 L 26.59 8.805 C 27.309 8.805 27.79 8.235 27.79 7.379 C 27.79 6.524 27.309 5.954 26.59 5.954 L 5.017 5.954 C 4.297 5.954 3.817 6.524 3.817 7.379 C 3.817 8.235 4.297 8.805 5.017 8.805 Z M 5.017 14.506 L 21.797 14.506 C 22.516 14.506 22.995 13.936 22.995 13.081 C 22.995 12.226 22.516 11.656 21.797 11.656 L 5.017 11.656 C 4.297 11.656 3.817 12.226 3.817 13.081 C 3.817 13.936 4.297 14.506 5.017 14.506 Z M 26.59 17.357 L 5.017 17.357 C 4.297 17.357 3.817 17.927 3.817 18.783 C 3.817 19.638 4.297 20.208 5.017 20.208 L 26.59 20.208 C 27.309 20.208 27.79 19.638 27.79 18.783 C 27.79 17.927 27.309 17.357 26.59 17.357 Z M 21.797 23.059 L 5.017 23.059 C 4.297 23.059 3.817 23.629 3.817 24.484 C 3.817 25.34 4.297 25.91 5.017 25.91 L 21.797 25.91 C 22.516 25.91 22.995 25.34 22.995 24.484 C 22.995 23.629 22.516 23.059 21.797 23.059 Z" id="path2" style="fill: rgb(63, 73, 77); fill-opacity: 1;"/>
</svg>