<?xml version="1.0" encoding="utf-8"?>
<svg class="ionicon" viewBox="0 0 32 32" version="1.1" id="svg6" width="32" height="32" xmlns="http://www.w3.org/2000/svg">
  <title id="title2">Close</title>
  <g transform="matrix(0.833339, 0, 0, 0.833339, 3.327635, 3.321167)">
    <path d="M 29.746 25.007 L 28.257 22.676 C 22.485 28.707 12.349 26.229 10.013 18.218 C 9.726 17.239 9.58 16.227 9.579 15.207 C 9.579 14.165 8.449 13.512 7.545 14.034 C 7.125 14.276 6.868 14.723 6.868 15.207 C 6.896 25.643 18.209 32.133 27.231 26.892 C 28.139 26.364 28.984 25.73 29.746 25.007 Z" id="path2" style="stroke-width: 1; fill-opacity: 1; fill: rgb(255, 255, 255); stroke: rgb(255, 255, 255);" transform="matrix(0.625269, -0.780409, 0.780409, 0.625269, -9.761195, 22.268082)"/>
    <path d="M 14.785 1.807 C 11.31 1.816 7.971 3.16 5.461 5.56 L 5.461 3.163 C 5.461 2.119 4.329 1.468 3.425 1.988 C 3.006 2.23 2.748 2.679 2.748 3.163 L 2.748 9.262 C 2.748 10.01 3.354 10.619 4.104 10.619 L 10.202 10.619 C 11.246 10.619 11.897 9.488 11.376 8.583 C 11.136 8.164 10.686 7.906 10.202 7.906 L 6.949 7.906 C 12.72 1.876 22.856 4.353 25.194 12.368 C 25.477 13.34 25.623 14.347 25.628 15.36 C 25.628 16.404 26.757 17.056 27.661 16.533 C 28.08 16.294 28.338 15.845 28.338 15.36 C 28.338 7.875 22.269 1.807 14.785 1.807 Z" id="path2" style="stroke-width: 1; fill-opacity: 1; fill: rgb(255, 255, 255); stroke: rgb(255, 255, 255);"/>
    <path d="M 25.146 25.892 L 23.657 23.558 C 17.886 29.592 7.749 27.113 5.413 19.1 C 5.126 18.121 4.98 17.109 4.979 16.092 C 4.979 15.047 3.849 14.395 2.946 14.918 C 2.525 15.158 2.269 15.606 2.269 16.092 C 2.297 26.525 13.609 33.017 22.631 27.773 C 23.539 27.246 24.385 26.614 25.146 25.892 Z" id="path-1" style="stroke-width: 1; fill-opacity: 1; fill: rgb(255, 255, 255); stroke: rgb(255, 255, 255);" transform="matrix(0.988445, -0.151581, 0.151581, 0.988445, -3.203854, 2.334103)"/>
  </g>
</svg>