<?xml version="1.0" encoding="utf-8"?>
<svg version="1.1" id="Capa_1" x="0px" y="0px" viewBox="0 0 32 32" style="enable-background:new 0 0 298 298;" width="32px" height="32px" xmlns="http://www.w3.org/2000/svg">
  <path d="M 26.549 7.244 C 26.549 6.298 25.781 5.53 24.834 5.53 L 6.977 5.53 C 6.031 5.53 5.263 6.298 5.263 7.244 L 5.263 23.816 C 5.263 24.762 6.031 25.53 6.977 25.53 L 24.834 25.53 C 25.781 25.53 26.549 24.762 26.549 23.816 L 26.549 7.244 Z M 11.763 7.673 L 14.834 7.673 L 14.834 10.101 L 11.763 10.101 L 11.763 7.673 Z M 9.62 23.387 L 7.406 23.387 L 7.406 20.959 L 9.62 20.959 L 9.62 23.387 Z M 9.62 10.101 L 7.406 10.101 L 7.406 7.673 L 9.62 7.673 L 9.62 10.101 Z M 14.834 23.387 L 11.763 23.387 L 11.763 20.959 L 14.834 20.959 L 14.834 23.387 Z M 14.049 17.509 L 14.049 13.551 C 14.049 12.961 14.468 12.744 14.961 13.066 L 17.835 14.943 C 18.328 15.266 18.332 15.794 17.839 16.117 L 14.959 17.994 C 14.466 18.316 14.049 18.098 14.049 17.509 Z M 20.049 23.387 L 16.977 23.387 L 16.977 20.959 L 20.049 20.959 L 20.049 23.387 Z M 20.049 10.101 L 16.977 10.101 L 16.977 7.673 L 20.049 7.673 L 20.049 10.101 Z M 24.406 23.387 L 22.192 23.387 L 22.192 20.959 L 24.406 20.959 L 24.406 23.387 Z M 24.406 10.101 L 22.192 10.101 L 22.192 7.673 L 24.406 7.673 L 24.406 10.101 Z" id="path2" style="stroke-width:0.99999994;fill:#3F494D;fill-opacity:1"/>
  <g id="g4"/>
  <g id="g6"/>
  <g id="g8"/>
  <g id="g10"/>
  <g id="g12"/>
  <g id="g14"/>
  <g id="g16"/>
  <g id="g18"/>
  <g id="g20"/>
  <g id="g22"/>
  <g id="g24"/>
  <g id="g26"/>
  <g id="g28"/>
  <g id="g30"/>
  <g id="g32"/>
</svg>